<svg width="220" height="258" viewBox="0 0 220 258" fill="none" xmlns="http://www.w3.org/2000/svg">
<path d="M208.018 199.515C188.8 250.53 125.755 268.258 74.2477 246.03C22.7401 223.802 23.9571 244.967 14.0995 222.029C1.38321 192.439 90.6178 192.413 72.7134 165.448C58.3991 143.89 25.6716 175.916 6.50588 158.324C-24.0602 130.268 122.868 134.078 95.1873 103.274C76.4578 82.431 34.9604 119.775 23.8697 94.2946C18.3884 81.7017 18.7003 71.4069 25.2175 59.5637C39.7732 33.1128 78.05 101.195 101.511 81.9462C123.934 63.5493 72.3358 22.5641 97.377 7.71628C111.539 -0.681086 124.098 1.91855 140.13 6.89406C188.688 21.9644 83.6915 118.032 132.075 133.669C158.005 142.049 175.64 104.854 199.375 118.257C227.757 134.285 219.186 169.871 208.018 199.515Z" stroke="white" stroke-width="0.643551"/>
<path fill-rule="evenodd" clip-rule="evenodd" d="M75.0254 242.462C123.875 263.543 183.665 246.729 201.892 198.348C212.483 170.233 220.611 136.484 193.695 121.284C171.185 108.572 154.46 143.847 129.868 135.899C83.9818 121.07 183.559 29.9605 137.507 15.668C122.303 10.9492 110.392 8.48379 96.9609 16.4478C73.2122 30.5292 122.147 69.3991 100.882 86.8465C78.6314 105.102 42.3302 40.5335 28.5257 65.6192C22.3449 76.8512 22.0491 86.6146 27.2475 98.5576C37.7658 122.723 77.1214 87.3063 94.8842 107.073C121.136 136.288 -18.2086 132.674 10.7799 159.282C28.9564 175.966 59.9947 145.593 73.5702 166.039C90.5506 191.612 5.92161 191.636 17.9816 219.699C27.3304 241.453 26.1762 221.381 75.0254 242.462Z" stroke="white" stroke-width="0.610335"/>
<path fill-rule="evenodd" clip-rule="evenodd" d="M75.8031 238.895C121.994 258.829 178.531 242.93 195.765 197.182C205.78 170.597 213.466 138.685 188.014 124.312C166.729 112.292 150.915 145.647 127.661 138.132C84.2721 124.11 178.43 37.9585 134.885 24.4438C120.508 19.9819 109.245 17.6506 96.5449 25.1812C74.0886 38.4963 120.361 75.2508 100.252 91.7487C79.2129 109.011 44.8872 47.9562 31.8341 71.6766C25.9896 82.2974 25.7098 91.5294 30.6253 102.822C40.5713 125.673 77.7851 92.1835 94.5812 110.875C119.404 138.499 -12.357 135.082 15.0539 160.242C32.2413 176.018 61.5905 147.299 74.4271 166.631C90.4834 190.813 10.4601 190.836 21.8637 217.371C30.7037 237.941 29.6124 218.961 75.8031 238.895Z" stroke="white" stroke-width="0.57712"/>
<path fill-rule="evenodd" clip-rule="evenodd" d="M76.5808 235.327C120.113 254.113 173.396 239.129 189.638 196.014C199.077 170.96 206.321 140.884 182.334 127.338C162.274 116.009 147.369 147.445 125.454 140.363C84.5624 127.148 173.301 45.9546 132.262 33.2177C118.713 29.0126 108.098 26.8155 96.1288 33.9126C74.9649 46.4614 118.574 81.1006 99.6229 96.649C79.7943 112.917 47.4442 55.3769 35.1423 77.7321C29.6342 87.7416 29.3706 96.4423 34.0032 107.085C43.3767 128.62 78.4487 97.0587 94.2781 114.674C117.673 140.709 -6.50537 137.489 19.3279 161.201C35.5261 176.069 63.1861 149.002 75.284 167.222C90.4162 190.011 14.9985 190.033 25.7458 215.041C34.077 234.428 33.0485 216.54 76.5808 235.327Z" stroke="white" stroke-width="0.543905"/>
<path fill-rule="evenodd" clip-rule="evenodd" d="M77.3604 231.756C118.234 249.395 168.263 235.327 183.514 194.844C192.376 171.32 199.177 143.081 176.655 130.362C157.82 119.726 143.826 149.242 123.249 142.592C84.8546 130.184 168.174 53.9488 129.641 41.9897C116.92 38.0414 106.953 35.9785 95.7147 42.6422C75.8433 54.4247 116.789 86.9485 98.9954 101.547C80.3777 116.822 50.0032 62.7956 38.4525 83.7857C33.2808 93.1839 33.0333 101.353 37.383 111.346C46.184 131.566 79.1143 101.932 93.977 118.472C115.943 142.916 -0.651786 139.893 23.6039 162.157C38.8129 176.117 64.7838 150.703 76.1429 167.81C90.351 189.208 19.5388 189.229 29.6299 212.71C37.4523 230.912 36.4866 214.117 77.3604 231.756Z" stroke="white" stroke-width="0.510689"/>
<path fill-rule="evenodd" clip-rule="evenodd" d="M78.1381 228.19C116.354 244.681 163.129 231.528 177.387 193.679C185.673 171.684 192.032 145.282 170.975 133.39C153.365 123.445 140.281 151.042 121.042 144.824C85.1449 133.223 163.045 61.9468 127.019 50.7655C115.124 47.074 105.806 45.1453 95.2986 51.3756C76.7196 62.3917 115.002 92.8002 98.3659 106.45C80.9592 120.731 52.5602 70.2183 41.7608 89.8431C36.9254 98.6301 36.694 106.268 40.7608 115.611C48.9894 134.516 79.7779 106.809 93.674 122.273C114.211 145.128 5.19982 142.301 27.8779 163.117C42.0977 176.169 66.3794 152.408 76.9997 168.403C90.2837 188.409 24.0772 188.428 33.512 210.382C40.8256 227.4 39.9227 211.698 78.1381 228.19Z" stroke="white" stroke-width="0.477474"/>
<path fill-rule="evenodd" clip-rule="evenodd" d="M78.9178 224.621C114.475 239.966 157.996 227.727 171.263 192.511C178.972 172.046 184.889 147.48 165.296 136.416C148.911 127.163 136.738 152.84 118.837 147.055C85.4371 136.261 157.919 69.9429 124.398 59.5395C113.331 56.1047 104.661 54.3102 94.8845 60.1071C77.598 70.3569 113.217 98.65 97.7385 111.35C81.5426 124.638 55.1191 77.6389 45.071 95.8986C40.572 104.074 40.3567 111.181 44.1406 119.874C51.7968 137.464 80.4435 111.684 93.3729 126.073C112.481 147.338 11.0534 144.708 32.1539 164.075C45.3845 176.219 67.9771 154.111 77.8586 168.993C90.2185 187.608 28.6176 187.626 37.396 208.052C44.2009 223.887 43.3608 209.276 78.9178 224.621Z" stroke="white" stroke-width="0.444259"/>
<path fill-rule="evenodd" clip-rule="evenodd" d="M79.6955 221.055C112.594 235.252 152.861 223.928 165.136 191.345C172.269 172.411 177.744 149.681 159.616 139.444C144.456 130.883 133.192 154.64 116.63 149.288C85.7274 139.301 152.79 77.941 121.775 68.3153C111.536 65.1374 103.514 63.477 94.4684 68.8405C78.4743 78.324 111.431 104.502 97.109 116.252C82.124 128.547 57.6762 85.0616 48.3793 101.956C44.2166 109.521 44.0174 116.096 47.5184 124.139C54.6022 140.414 81.1071 116.562 93.0698 129.874C110.75 149.549 16.905 147.116 36.4279 165.035C48.6693 176.272 69.5728 155.816 78.7155 169.586C90.1513 186.809 33.156 186.825 41.2781 205.724C47.5742 220.375 46.7969 206.857 79.6955 221.055Z" stroke="white" stroke-width="0.411044"/>
<path fill-rule="evenodd" clip-rule="evenodd" d="M80.4751 217.486C110.715 230.536 147.729 220.128 159.012 190.177C165.568 172.773 170.6 151.88 153.937 142.471C140.003 134.601 129.649 156.439 114.425 151.519C86.0196 142.339 147.663 85.937 119.155 77.0892C109.743 74.1681 102.369 72.6419 94.0543 77.572C79.3526 86.2891 109.646 110.352 96.4815 121.152C82.7074 132.453 60.2351 92.4823 51.6895 108.012C47.8632 114.965 47.6801 121.009 50.8982 128.402C57.4096 143.362 81.7727 121.437 92.7687 133.674C109.02 151.759 22.7586 149.522 40.7039 165.994C51.9561 176.322 71.1704 157.52 79.5743 170.176C90.086 186.007 37.6964 186.022 45.1622 203.395C50.9495 216.862 50.235 204.436 80.4751 217.486Z" stroke="white" stroke-width="0.377828"/>
<path fill-rule="evenodd" clip-rule="evenodd" d="M81.2509 213.916C108.833 225.818 142.592 216.325 152.883 189.007C158.863 173.133 163.453 154.077 148.255 145.495C135.545 138.317 126.102 158.235 112.216 153.747C86.3079 145.374 142.532 93.9312 116.53 85.8612C107.945 83.1969 101.22 81.8048 93.6363 86.3015C80.227 94.2523 107.857 116.199 95.8501 126.051C83.2869 136.358 62.7902 99.901 54.9958 114.065C51.5059 120.407 51.3389 125.92 54.2741 132.663C60.213 146.307 82.4343 126.31 92.4637 137.471C107.286 153.967 28.6082 151.926 44.976 166.95C55.239 176.37 72.7641 159.221 80.4292 170.765C90.0168 185.204 42.2329 185.218 49.0423 201.063C54.3209 213.346 53.6692 202.013 81.2509 213.916Z" stroke="white" stroke-width="0.344613"/>
<path fill-rule="evenodd" clip-rule="evenodd" d="M82.0305 210.347C106.954 221.103 137.46 212.524 146.759 187.84C152.162 173.495 156.31 156.276 142.577 148.521C131.092 142.035 122.559 160.033 110.012 155.978C86.6001 148.412 137.405 101.927 113.909 94.6351C106.152 92.2276 100.075 90.9697 93.2222 95.033C81.1054 102.217 106.072 122.049 95.2226 130.951C83.8703 140.265 65.3491 107.322 58.306 120.121C55.1525 125.851 55.0016 130.833 57.6538 136.926C63.0204 149.255 83.0999 131.186 92.1626 141.271C105.556 156.176 34.4618 154.333 49.252 167.908C58.5258 176.42 74.3618 160.924 81.2881 171.355C89.9516 184.403 46.7732 184.415 52.9263 198.733C57.6961 209.832 57.1073 199.591 82.0305 210.347Z" stroke="white" stroke-width="0.311398"/>
<path fill-rule="evenodd" clip-rule="evenodd" d="M82.8082 206.778C105.073 216.387 132.325 208.723 140.632 186.672C145.459 173.858 149.164 158.475 136.896 151.547C126.636 145.753 119.013 161.831 107.805 158.209C86.8904 151.45 132.276 109.923 111.287 103.409C104.357 101.258 98.928 100.135 92.8061 103.764C81.9818 110.183 104.286 127.899 94.5932 135.851C84.4518 144.172 67.9062 114.742 61.6143 126.176C58.7972 131.295 58.6623 135.745 61.0317 141.189C65.8258 152.203 83.7635 136.061 91.8596 145.07C103.825 158.386 40.3134 156.739 53.526 168.866C61.8106 176.471 75.9574 162.627 82.145 171.946C89.8844 183.602 51.3116 183.613 56.8084 196.404C61.0695 206.319 60.5434 197.17 82.8082 206.778Z" stroke="white" stroke-width="0.278183"/>
<path fill-rule="evenodd" clip-rule="evenodd" d="M83.5859 203.212C103.192 211.673 127.19 204.925 134.506 185.506C138.756 174.222 142.019 160.676 131.216 154.575C122.181 149.473 115.468 163.631 105.598 160.442C87.1807 154.49 127.147 117.921 108.664 112.185C102.562 110.291 97.781 109.301 92.39 112.498C82.8581 118.15 102.499 133.751 93.9637 140.753C85.0332 148.081 70.4632 122.165 64.9226 132.234C62.4418 136.742 62.3231 140.66 64.4095 145.454C68.6312 155.153 84.4272 140.938 91.5565 148.872C102.093 160.597 46.165 159.147 57.8 169.827C65.0954 176.523 77.5531 164.332 83.0018 172.538C89.8172 182.803 55.8501 182.812 60.6905 194.076C64.4428 202.807 63.9796 194.751 83.5859 203.212Z" stroke="white" stroke-width="0.244967"/>
<path fill-rule="evenodd" clip-rule="evenodd" d="M84.3636 199.643C101.311 206.957 122.056 201.124 128.379 184.338C132.054 174.584 134.874 162.875 125.535 157.601C117.725 153.191 111.923 165.43 103.391 162.672C87.471 157.527 122.019 125.917 106.041 120.959C100.766 119.322 96.6339 118.466 91.974 121.229C83.7345 126.115 100.712 139.6 93.3343 145.654C85.6147 151.987 73.0202 129.586 68.2308 138.289C66.0864 142.186 65.9838 145.573 67.7874 149.717C71.4366 158.101 85.0908 145.813 91.2535 152.671C100.361 162.807 52.0166 161.553 62.074 170.785C68.3803 176.573 79.1488 166.036 83.8587 173.129C89.75 182.001 60.3885 182.01 64.5726 191.746C67.8161 199.293 67.4157 192.33 84.3636 199.643Z" stroke="white" stroke-width="0.211752"/>
<path fill-rule="evenodd" clip-rule="evenodd" d="M85.1432 196.075C99.4327 202.242 116.923 197.323 122.254 183.171C125.353 174.946 127.73 165.074 119.857 160.628C113.272 156.909 108.38 167.228 101.186 164.903C87.7632 160.565 116.892 133.914 103.421 129.733C98.9731 128.352 95.4889 127.631 91.5599 129.961C84.6128 134.08 98.9274 145.45 92.7068 150.554C86.1981 155.894 75.5792 137.006 71.5411 144.345C69.733 147.63 69.6465 150.486 71.1671 153.98C74.244 161.049 85.7564 150.688 90.9524 156.471C98.6316 165.017 57.8702 163.96 66.35 171.743C71.667 176.623 80.7464 167.739 84.7176 173.719C89.6847 181.2 64.9288 181.207 68.4567 189.416C71.1914 195.78 70.8538 189.908 85.1432 196.075Z" stroke="white" stroke-width="0.178537"/>
<path fill-rule="evenodd" clip-rule="evenodd" d="M85.919 192.508C97.55 197.528 111.786 193.524 116.126 182.005C118.648 175.311 120.583 167.275 114.174 163.656C108.815 160.629 104.832 169.028 98.977 167.136C88.0515 163.605 111.761 141.912 100.796 138.509C97.1759 137.385 94.3399 136.798 91.1418 138.694C85.4872 142.047 97.1387 151.302 92.0754 155.456C86.7776 159.803 78.1342 144.429 74.8474 150.402C73.3757 153.076 73.3053 155.401 74.543 158.245C77.0474 163.998 86.418 155.566 90.6474 160.272C96.898 167.228 63.7199 166.368 70.6221 172.703C74.9499 176.676 82.3402 169.444 85.5725 174.312C89.6156 180.401 69.4653 180.407 72.3368 187.089C74.5628 192.268 74.288 187.489 85.919 192.508Z" stroke="white" stroke-width="0.145321"/>
</svg>
