<svg width="224" height="128" viewBox="0 0 224 128" fill="none" xmlns="http://www.w3.org/2000/svg">
<path d="M3.05 127V99.9H12.1V107.45L10.3 105.3C11.3 103.367 12.6667 101.917 14.4 100.95C16.1333 99.95 18.0667 99.45 20.2 99.45C22.6333 99.45 24.7667 100.083 26.6 101.35C28.4667 102.583 29.7167 104.517 30.35 107.15L27.25 106.5C28.2167 104.3 29.6667 102.583 31.6 101.35C33.5667 100.083 35.8167 99.45 38.35 99.45C40.45 99.45 42.3167 99.8833 43.95 100.75C45.6167 101.583 46.9167 102.883 47.85 104.65C48.8167 106.417 49.3 108.7 49.3 111.5V127H39.8V113.05C39.8 111.117 39.4333 109.717 38.7 108.85C37.9667 107.95 36.9667 107.5 35.7 107.5C34.8 107.5 33.9833 107.717 33.25 108.15C32.5167 108.583 31.95 109.25 31.55 110.15C31.15 111.017 30.95 112.15 30.95 113.55V127H21.45V113.05C21.45 111.117 21.0833 109.717 20.35 108.85C19.65 107.95 18.65 107.5 17.35 107.5C16.4167 107.5 15.5833 107.717 14.85 108.15C14.15 108.583 13.5833 109.25 13.15 110.15C12.75 111.017 12.55 112.15 12.55 113.55V127H3.05ZM69.2379 127.45C66.2712 127.45 63.6379 126.85 61.3379 125.65C59.0379 124.45 57.2212 122.8 55.8879 120.7C54.5879 118.567 53.9379 116.133 53.9379 113.4C53.9379 110.667 54.5879 108.25 55.8879 106.15C57.2212 104.05 59.0379 102.417 61.3379 101.25C63.6379 100.05 66.2712 99.45 69.2379 99.45C72.2046 99.45 74.8379 100.05 77.1379 101.25C79.4712 102.417 81.2879 104.05 82.5879 106.15C83.8879 108.25 84.5379 110.667 84.5379 113.4C84.5379 116.133 83.8879 118.567 82.5879 120.7C81.2879 122.8 79.4712 124.45 77.1379 125.65C74.8379 126.85 72.2046 127.45 69.2379 127.45ZM69.2379 119.9C70.3379 119.9 71.3046 119.65 72.1379 119.15C73.0046 118.65 73.6879 117.917 74.1879 116.95C74.6879 115.95 74.9379 114.767 74.9379 113.4C74.9379 112.033 74.6879 110.883 74.1879 109.95C73.6879 108.983 73.0046 108.25 72.1379 107.75C71.3046 107.25 70.3379 107 69.2379 107C68.1712 107 67.2046 107.25 66.3379 107.75C65.5046 108.25 64.8212 108.983 64.2879 109.95C63.7879 110.883 63.5379 112.033 63.5379 113.4C63.5379 114.767 63.7879 115.95 64.2879 116.95C64.8212 117.917 65.5046 118.65 66.3379 119.15C67.2046 119.65 68.1712 119.9 69.2379 119.9ZM95.7563 127L84.6062 99.9H94.3563L103.256 122.55H98.3562L107.706 99.9H116.756L105.556 127H95.7563ZM132.68 127.45C129.48 127.45 126.68 126.85 124.28 125.65C121.913 124.417 120.063 122.75 118.73 120.65C117.43 118.517 116.78 116.1 116.78 113.4C116.78 110.7 117.413 108.3 118.68 106.2C119.98 104.067 121.763 102.417 124.03 101.25C126.296 100.05 128.846 99.45 131.68 99.45C134.346 99.45 136.78 100 138.98 101.1C141.18 102.167 142.93 103.75 144.23 105.85C145.53 107.95 146.18 110.5 146.18 113.5C146.18 113.833 146.163 114.217 146.13 114.65C146.096 115.083 146.063 115.483 146.03 115.85H124.58V110.85H140.98L137.38 112.25C137.413 111.017 137.18 109.95 136.68 109.05C136.213 108.15 135.546 107.45 134.68 106.95C133.846 106.45 132.863 106.2 131.73 106.2C130.596 106.2 129.596 106.45 128.73 106.95C127.896 107.45 127.246 108.167 126.78 109.1C126.313 110 126.08 111.067 126.08 112.3V113.75C126.08 115.083 126.346 116.233 126.88 117.2C127.446 118.167 128.246 118.917 129.28 119.45C130.313 119.95 131.546 120.2 132.98 120.2C134.313 120.2 135.446 120.017 136.38 119.65C137.346 119.25 138.296 118.65 139.23 117.85L144.23 123.05C142.93 124.483 141.33 125.583 139.43 126.35C137.53 127.083 135.28 127.45 132.68 127.45ZM167.16 127.7C161.993 127.7 157.96 126.283 155.06 123.45C152.16 120.617 150.71 116.6 150.71 111.4V92H160.61V111.1C160.61 114.1 161.193 116.25 162.36 117.55C163.56 118.85 165.193 119.5 167.26 119.5C169.326 119.5 170.943 118.85 172.11 117.55C173.276 116.25 173.86 114.1 173.86 111.1V92H183.61V111.4C183.61 116.6 182.16 120.617 179.26 123.45C176.36 126.283 172.326 127.7 167.16 127.7ZM190.316 127V92H206.316C209.516 92 212.266 92.5167 214.566 93.55C216.9 94.5833 218.7 96.0833 219.966 98.05C221.233 99.9833 221.866 102.283 221.866 104.95C221.866 107.583 221.233 109.867 219.966 111.8C218.7 113.733 216.9 115.233 214.566 116.3C212.266 117.333 209.516 117.85 206.316 117.85H195.816L200.216 113.55V127H190.316ZM200.216 114.6L195.816 110.05H205.716C207.783 110.05 209.316 109.6 210.316 108.7C211.35 107.8 211.866 106.55 211.866 104.95C211.866 103.317 211.35 102.05 210.316 101.15C209.316 100.25 207.783 99.8 205.716 99.8H195.816L200.216 95.25V114.6Z" fill="white"/>
<path d="M86.7944 0.193588C86.9457 0.290421 87.2232 0.677765 87.4249 1.0651C87.9293 2.03344 91.4854 5.44684 93.3517 6.77831C94.1839 7.38351 94.991 7.98872 95.1423 8.10976C95.4702 8.40027 98.5974 9.87698 100.287 10.5306C101.7 11.0874 102.053 11.3537 102.053 11.7652C102.053 11.9831 101.775 12.1042 101.296 12.1042C100.464 12.1042 98.1435 11.6926 97.3869 11.4021C97.1095 11.2811 96.252 11.0148 95.4954 10.7727C94.7388 10.5306 94.0074 10.2401 93.8561 10.1433C93.73 10.0222 93.4525 9.9254 93.2508 9.9254C92.6707 9.9254 94.6631 11.2327 96.8825 12.2978C101.094 14.3071 104.776 15.1302 109.619 15.106C112.721 15.106 114.007 14.9123 117.159 14.0166C118.824 13.5325 119.959 13.4356 119.959 13.7261C119.934 14.1377 117.513 15.687 115.924 16.2922C115.444 16.4859 114.738 16.7522 114.385 16.8974C112.292 17.6963 110.148 18.0352 106.87 18.011C105.029 18.011 103.667 18.0594 103.843 18.1079C104.045 18.1805 104.549 18.3499 104.953 18.5194C105.382 18.6889 106.718 18.9794 107.929 19.1488C109.745 19.3909 110.602 19.3909 112.595 19.1488C115.798 18.7373 116.983 18.3984 120.009 17.0911C121.321 16.5101 122.985 16.2438 122.985 16.6069C122.985 16.6796 122.758 17.0185 122.481 17.3574C120.589 19.6814 125.86 16.3648 128.912 13.3388C132.065 10.1917 134.561 9.3444 135.948 10.9179C136.756 11.8379 136.68 12.1768 135.167 14.2345C134.561 15.0576 133.729 16.3891 133.3 17.1879C132.569 18.6162 132.569 18.6889 132.922 19.7056C133.124 20.2866 133.326 21.5697 133.376 22.538C133.452 24.16 133.527 24.4021 134.183 24.9831C134.587 25.3462 135.141 25.7093 135.394 25.8062C135.721 25.903 135.848 26.1693 135.848 26.7987C135.848 27.4765 135.646 27.8397 134.839 28.5901C133.351 29.97 133.25 29.9942 128.433 29.2195C127.197 29.0017 126.037 28.9048 125.835 28.9775C125.457 29.1227 124.07 28.6628 123.49 28.1786C122.758 27.6218 121.346 26.9439 119.934 26.5324C118.597 26.1209 117.033 26.0966 112.015 26.4114C111.737 26.4356 111.107 26.3145 110.627 26.1935C106.012 24.8378 103.515 24.4989 96.5042 24.1842C89.6443 23.8937 85.029 24.0389 81.3217 24.6926C76.9334 25.4672 76.7316 25.5399 73.4278 26.6534C72.5955 26.9197 71.6876 27.2102 71.4101 27.2829C71.1327 27.3313 70.6788 27.5007 70.4013 27.5976C68.8881 28.2512 67.9045 28.5659 67.4758 28.5659C67.1984 28.5659 66.9966 28.6628 66.9966 28.808C66.9966 28.929 66.5427 29.1227 65.9878 29.1953C65.433 29.2922 64.9034 29.4616 64.8277 29.5585C64.752 29.6795 64.3737 29.7763 63.9702 29.7763C63.5667 29.7763 63.1632 29.8732 63.0875 30.0184C62.911 30.2847 64.2728 30.1153 65.1051 29.7763C65.3825 29.6553 65.9626 29.51 66.3661 29.4616C67.0471 29.3648 67.5262 29.2195 69.3925 28.5659C69.67 28.4691 70.5779 28.1786 71.4101 27.9607C72.2424 27.7186 73.1251 27.4523 73.3521 27.3313C73.6043 27.2102 73.9574 27.1134 74.1844 27.1134C74.3861 27.1134 75.0418 26.9682 75.6219 26.7987C78.7744 25.8304 83.3393 25.0799 84.1463 25.3704C84.7264 25.5883 84.7516 25.6125 84.2724 25.7819C83.995 25.8546 83.314 26.1693 82.7592 26.4356L81.7504 26.9197L82.6331 26.7503C84.802 26.3387 85.6343 26.1451 87.0466 25.7819C87.8789 25.5641 88.9634 25.2736 89.4425 25.1283C90.5774 24.7652 92.5698 24.7894 96.5042 25.1283C98.2444 25.2736 100.968 25.5156 102.557 25.6609C104.146 25.8061 105.861 26.024 106.34 26.1451C106.819 26.2903 107.576 26.3872 107.979 26.3872C108.408 26.3872 108.912 26.5082 109.114 26.6292C109.442 26.8471 109.417 26.9197 109.013 27.2345C108.282 27.767 108.963 27.8881 110.88 27.5734C111.788 27.4281 113.755 27.2587 115.243 27.186C118.673 27.0408 120.489 27.4765 122.153 28.9048C123.263 29.849 124.852 30.7447 125.381 30.7447C125.558 30.7447 125.659 30.5026 125.659 30.1879C125.633 29.7279 125.785 29.6553 126.819 29.5827C127.853 29.51 128.105 29.6069 128.66 30.1637C129.341 30.8657 129.366 31.0352 129.29 35.4653C129.265 36.6515 129.164 37.7409 129.063 37.8862C128.937 38.0072 128.786 38.443 128.71 38.8545C128.13 42.1711 124.902 45.5118 122.304 45.5118C121.27 45.5118 121.069 45.294 120.741 43.8415C120.438 42.51 119.454 40.3796 118.824 39.7018C118.219 39.0482 118.774 38.8545 121.22 38.8545C122.96 38.8545 123.868 38.7335 124.499 38.443C126.062 37.7167 127.021 36.361 127.021 34.8117V33.7949L126.289 34.8843C125.507 36.0947 124.398 36.7242 122.657 36.942C121.447 37.1115 118.294 36.6515 118.042 36.2884C117.967 36.1674 117.765 36.0705 117.563 36.0705C117.386 36.0705 116.403 35.7074 115.369 35.2475C113.755 34.5454 112.443 33.9886 110.501 33.1655C108.963 32.5361 106.315 31.6888 106.063 31.7614C105.937 31.8098 106.643 32.4151 107.651 33.0929C108.686 33.7707 109.694 34.5212 109.871 34.7391C110.199 35.1264 110.098 35.1264 108.736 34.9812C107.904 34.8843 106.769 34.6907 106.214 34.497C103.843 33.7707 103.389 33.6497 103.036 33.6497C102.683 33.6497 98.6731 32.4635 97.3869 31.9793C97.1095 31.8825 95.6719 31.2288 94.2091 30.551C90.7792 28.929 90.2244 28.9048 85.5334 30.1395C84.8525 30.3089 83.8185 30.5752 83.2636 30.7205C82.7088 30.8657 80.8425 31.0352 79.1023 31.1078C72.7216 31.3741 66.9714 32.3424 64.4242 33.5529C63.7937 33.8676 62.8605 34.1097 62.3813 34.0854C61.1708 34.037 60.0863 35.1264 60.3133 36.119C60.6159 37.402 57.4634 40.9364 54.7901 42.2679C53.9074 42.7037 53.3778 43.1152 53.3778 43.3815C53.3778 44.0351 53.9578 43.8899 54.9162 43.0184C55.7737 42.2437 58.0687 40.6702 58.3209 40.6702C58.6235 40.6702 61.0447 38.2977 61.9022 37.1599C62.9362 35.8285 63.6928 35.1264 64.1467 35.1022C64.2981 35.1022 64.752 34.9569 65.1556 34.7633C67.8793 33.456 70.7544 32.9961 78.2196 32.6814C83.0366 32.4877 85.1803 32.2214 88.0554 31.4951C90.0983 30.9868 91.6619 31.1562 93.8561 32.173C96.479 33.3592 97.0842 33.6013 98.9001 34.1581C99.7324 34.4244 100.64 34.7149 100.918 34.8359C101.195 34.9569 102.28 35.2232 103.314 35.4653C104.348 35.6832 105.558 35.9737 105.962 36.0705C106.39 36.1916 107.626 36.4579 108.736 36.7C111.107 37.1841 112.191 37.523 112.443 37.862C112.544 38.0072 112.62 38.7335 112.62 39.4597C112.62 40.6459 112.494 41.4448 111.964 43.8899C111.762 44.9308 111.157 45.0761 109.064 44.6888C108.055 44.4951 105.558 44.1562 103.541 43.9383C100.136 43.5752 99.4802 43.5752 95.0919 43.9383C90.4261 44.3014 89.3417 44.4467 85.2812 45.1971C82.6079 45.6571 81.2964 45.9476 79.4806 46.4076C76.429 47.1822 70.704 48.8768 68.8881 49.5546C68.3333 49.7483 67.6523 50.0146 67.3749 50.1114C67.0975 50.2083 66.4418 50.4746 65.9122 50.6924C65.3825 50.9103 64.7773 51.0798 64.5755 51.0798C64.3737 51.0798 64.2728 51.1766 64.3485 51.3219C64.4242 51.4429 64.2728 51.564 63.9954 51.564C63.718 51.564 63.4154 51.685 63.3145 51.8545C63.1884 52.0239 63.264 52.0723 63.491 51.9997C63.6928 51.9271 64.2981 51.7334 64.8529 51.564C65.4078 51.3945 66.0887 51.1524 66.3661 51.0072C66.8453 50.7651 67.5767 50.5714 69.5186 50.1114C69.9978 50.0146 70.7544 49.7967 71.1579 49.6515C72.6964 49.1431 75.5715 48.3926 76.7568 48.1748C77.4125 48.0779 79.2284 47.7632 80.7416 47.4727C85.5082 46.6254 86.4666 46.456 88.6859 46.2139C93.7804 45.6813 98.4966 45.4634 103.591 45.5845C108.055 45.6813 109.165 45.7781 109.846 46.1171C110.653 46.5044 110.678 46.577 110.527 47.5938C110.4 48.6105 110.4 48.6589 110.955 48.5379C111.434 48.4169 111.813 48.6589 113.049 50.0388C114.663 51.806 116.403 53.5006 119.782 56.5751C120.993 57.6403 121.977 58.6086 121.977 58.6812C121.977 59.0444 121.094 58.7539 119.782 57.9066C118.37 57.0351 117.967 56.7446 116.68 55.6552C116.327 55.3647 114.965 54.2753 113.603 53.2343C110.905 51.1282 110.123 50.3051 110.123 49.5304C110.098 48.901 109.493 50.4504 109.24 51.7576C109.139 52.2418 108.988 52.7502 108.862 52.8954C108.61 53.2343 108.383 54.469 108.585 54.469C108.686 54.469 109.013 53.9848 109.316 53.3796C110.022 51.9755 110.552 51.9755 112.09 53.3312C112.746 53.9122 113.603 54.6626 114.032 54.9773C114.436 55.2921 115.571 56.2846 116.554 57.1561C117.513 58.0276 118.698 59.0202 119.127 59.3591C119.908 59.9643 119.934 60.0127 119.429 60.158C119.076 60.279 118.975 60.4485 119.076 60.7148C119.782 62.3367 119.354 62.3609 117.992 60.8116C117.437 60.1822 116.882 59.7464 116.781 59.8432C116.68 59.9643 116.806 60.6663 117.033 61.4168C117.462 62.8209 117.563 63.6198 117.336 63.8376C117.134 64.0555 115.999 63.6924 115.571 63.3051C115.369 63.1114 115.091 62.9419 114.965 62.9419C114.839 62.9419 114.587 62.7725 114.41 62.5788C114.234 62.3851 114.007 62.2157 113.881 62.2157C113.755 62.2157 114.032 62.7725 114.537 63.4503C115.394 64.6365 115.596 65.1207 115.268 65.1207C115.192 65.1207 114.083 64.6365 112.796 64.0555C109.745 62.6272 108.307 62.2157 106.617 62.2399C105.432 62.2641 105.331 62.2883 105.987 62.4578C107.223 62.7241 108.433 63.644 108.105 64.0313C107.904 64.2734 107.904 64.3944 108.105 64.5155C108.257 64.6123 108.332 64.806 108.282 64.9512C108.206 65.1691 106.744 65.2417 103.162 65.2417C98.7992 65.2417 98.0174 65.3144 97.1347 65.7017C96.5798 65.9438 95.8485 66.2827 95.4954 66.428C94.3857 66.8879 91.3845 69.1151 90.1487 70.3981C88.8373 71.7296 87.1727 74.102 87.1727 74.6346C87.1727 74.8041 87.0718 75.0462 86.9457 75.1914C86.6935 75.4335 86.2648 76.8618 85.9117 78.7259C85.6091 80.372 85.1047 81.1225 83.4654 82.4297C82.6583 83.0834 81.9522 83.6886 81.8765 83.7612C81.8008 83.8338 80.9686 84.5359 79.985 85.3348C79.0266 86.1094 76.1263 88.7966 73.5539 91.29C68.5351 96.1317 67.4254 96.8822 64.2224 97.56C62.6335 97.899 60.5403 98.48 59.8089 98.7705C59.5315 98.8673 58.8001 99.1578 58.1696 99.3999C56.4042 100.078 53.0247 102.281 51.1584 103.999C50.2252 104.847 49.5695 105.549 49.6704 105.549C49.7713 105.549 50.8557 104.871 52.0663 104.024C54.0335 102.692 55.2188 101.966 56.4042 101.409C57.7156 100.804 59.7332 99.9809 59.9602 99.9809C60.3133 99.9809 62.684 99.2546 63.264 98.9883C63.5162 98.8673 64.2728 98.7705 64.979 98.7705C65.7608 98.7705 66.7192 98.5526 67.5515 98.1895C68.9386 97.56 70.2248 97.1727 71.9145 96.8338C72.4694 96.7127 73.6043 96.4464 74.4366 96.2286C75.2688 96.0349 76.4037 95.7686 76.9586 95.6476C78.1187 95.3813 82.3052 94.3403 83.7176 93.9288C84.6507 93.6625 85.1551 93.7593 85.1551 94.1951C85.1551 94.3161 84.9534 94.5098 84.7264 94.5824C84.4742 94.6792 83.7176 95.0666 83.0618 95.4539C81.8513 96.1559 78.2952 97.5116 77.0847 97.7295C76.7316 97.7779 76.2272 97.9232 75.9498 98.0442C75.6723 98.141 74.26 98.601 72.7973 99.0368C71.3345 99.4483 70.0483 99.9083 69.9222 100.029C69.7708 100.126 69.4682 100.223 69.216 100.223C68.989 100.223 68.4089 100.368 67.955 100.562C65.2817 101.675 64.4998 102.014 63.4658 102.474C62.8353 102.765 62.2805 103.08 62.2048 103.152C62.1291 103.249 61.8517 103.37 61.5743 103.443C61.1203 103.54 61.1203 103.564 61.65 103.588C61.9526 103.588 62.4066 103.515 62.6588 103.37C62.8857 103.249 64.4998 102.692 66.24 102.16C71.6119 100.513 71.9902 100.417 75.3193 99.6178C77.4882 99.1336 78.7492 98.7947 79.985 98.4073C80.5398 98.2379 81.6747 97.9232 82.507 97.6811C84.8777 97.0274 85.7352 96.7854 86.29 96.5917C86.5674 96.4707 87.8285 96.0591 89.0642 95.6234C90.3252 95.2118 91.5358 94.7761 91.7628 94.6308C92.3176 94.3645 93.73 94.3403 93.73 94.6066C93.73 95.0666 91.2836 96.6643 88.6859 97.9232C83.6924 100.344 82.3809 100.949 82.0278 100.949C81.8008 100.949 81.6243 101.046 81.6243 101.191C81.6243 101.312 81.4225 101.433 81.1956 101.433C80.9686 101.433 80.8677 101.506 80.9434 101.603C81.1199 101.748 83.6167 101.288 84.5246 100.949C84.802 100.828 85.71 100.562 86.5422 100.344C90.3505 99.3515 93.8308 97.8021 98.6479 94.9455C101.346 93.3236 102.708 92.4278 104.121 91.2658C104.701 90.8059 104.701 90.2975 104.095 90.2975C103.843 90.2975 103.188 90.128 102.658 89.9344C95.5206 87.1988 91.7124 81.9214 92.4942 75.8693C92.7716 73.6905 92.822 73.5937 94.0074 71.3181C94.9405 69.4782 96.5294 67.7836 97.286 67.7836C97.5382 67.7836 97.7652 67.832 97.7652 67.9047C97.7652 68.2436 96.6303 70.4466 96.4537 70.4466C96.3529 70.4466 96.252 70.6402 96.252 70.8823C96.252 71.1244 96.1763 71.4149 96.1007 71.4875C95.9998 71.5844 95.7224 72.2138 95.4702 72.9158C94.9405 74.3441 94.7892 79.7426 95.2432 80.0089C95.3945 80.0815 95.4954 80.3962 95.4954 80.6867C95.4954 80.9772 95.6719 81.534 95.8737 81.9214C96.0754 82.2845 96.252 82.7687 96.252 82.9381C96.252 83.1318 96.3276 83.277 96.4537 83.277C96.5546 83.277 96.8573 83.6644 97.1347 84.1485C97.9417 85.5768 101.548 88.1187 102.809 88.1187C103.036 88.1187 103.314 88.1914 103.414 88.2882C104.423 89.2565 113.78 89.886 118.698 89.3292C122.456 88.8934 126.869 87.6346 130.955 85.8189C132.014 85.359 133.023 84.9716 133.225 84.9716C133.426 84.9716 133.578 84.8506 133.578 84.7053C133.578 84.5601 133.931 84.4875 134.41 84.5359C135.116 84.6085 135.217 84.6811 135.116 85.2137C135.091 85.5526 134.965 85.8673 134.864 85.94C134.788 86.0126 134.587 86.2789 134.435 86.5452C134.284 86.8115 133.981 87.3441 133.754 87.7556C133.527 88.1429 132.443 90.2733 131.308 92.4763C129.114 96.7612 128.962 97.0517 128.105 98.2137C127.777 98.6252 127.525 99.1094 127.525 99.303C127.525 99.6904 128.534 98.6494 130.022 96.7127C130.652 95.9139 131.232 95.2118 131.333 95.1392C131.661 94.8971 133.502 91.8468 134.587 89.6923C135.192 88.4819 136.15 86.8599 136.705 86.061C137.714 84.6085 141.169 81.0983 141.573 81.0983C141.699 81.0983 142.027 80.8804 142.329 80.6383C142.934 80.0815 144.977 79.0648 146.49 78.5564C147.701 78.1448 149.618 78.0722 149.845 78.4111C149.92 78.5322 148.937 79.5005 147.651 80.5415C146.364 81.5582 144.221 83.5433 142.909 84.9232C140.034 87.9493 140.362 87.5619 138.395 89.9344C136.15 92.6215 136.1 92.6941 137.159 91.9195C137.663 91.5563 138.143 91.2658 138.218 91.2658C138.294 91.2658 139.555 90.5638 141.018 89.6923C142.455 88.8208 143.716 88.1187 143.792 88.1187C143.842 88.1187 144.675 87.6588 145.608 87.102C149.189 85.0201 149.466 84.899 149.466 85.6979C149.466 86.2789 147.222 88.4334 144.397 90.588C141.699 92.5973 137.537 96.398 135.368 98.7947C133.099 101.288 132.771 101.7 132.897 101.821C132.998 101.918 133.174 101.797 134.637 100.586C137.563 98.1895 138.723 97.2937 144.145 93.372C147.348 91.0722 150.248 88.7239 152.367 86.7146C154.183 85.0201 156.15 83.2044 156.78 82.6718C158.243 81.413 159.428 79.7426 159.958 78.1691C160.412 76.8134 160.311 74.441 159.731 72.819C158.949 70.6644 156.73 69.2845 152.871 68.5099C146.541 67.251 142.657 66.9847 133.931 67.1784C125.81 67.3479 125.81 67.3479 128.408 64.9754C130.45 63.0872 131.838 62.2883 133.653 61.8768C136.756 61.1747 139.177 59.3349 140.589 56.5751C141.018 55.6794 141.396 54.8079 141.396 54.6384C141.396 54.009 142.153 52.8228 142.834 52.4113C143.187 52.1692 143.893 51.9755 144.397 51.9755C145.204 51.9513 145.532 52.1692 147.575 54.1301C148.836 55.3405 150.299 56.6235 150.854 57.0351C151.408 57.4224 151.913 57.8097 151.988 57.8824C152.417 58.3665 156.352 60.6179 158.798 61.7557C164.245 64.3218 166.616 65.1691 168.533 65.1691C169.718 65.1691 170.223 64.806 171.03 63.3535C171.307 62.8693 171.61 62.4578 171.711 62.4578C171.837 62.4578 171.912 62.2883 171.912 62.0946C171.912 61.7557 172.392 60.86 173.375 59.4317C173.526 59.1654 173.753 58.7781 173.829 58.5844C174.031 58.1002 174.661 56.6477 174.939 56.0425C175.418 55.0016 176.25 52.6049 176.452 51.806C176.553 51.3461 176.856 50.1357 177.133 49.1431C177.41 48.1506 177.839 46.456 178.066 45.3908C178.52 43.3573 178.722 42.4858 179.226 40.6702C179.378 40.0649 179.605 39.1934 179.731 38.7335C179.857 38.2735 180.084 37.3294 180.21 36.6758C180.361 35.9979 180.588 35.2475 180.714 34.9812C180.916 34.5212 181.546 32.9719 182 31.8341C182.53 30.4542 182.782 28.5901 182.934 25.1767C183.06 21.7391 183.034 21.3034 182.606 20.5529C182.354 20.0929 182.051 19.6814 181.95 19.6088C181.874 19.5362 181.748 19.052 181.673 18.5194C181.622 17.9626 181.572 18.3499 181.546 19.4393C181.496 21.4728 180.992 22.998 180.386 22.998C180.134 22.998 179.983 23.2158 179.983 23.579C179.983 24.4021 180.235 24.9346 180.613 24.9346C181.294 24.9346 181.723 24.16 181.9 22.6833L182.101 21.1823L182.379 22.8285C182.58 23.9421 182.606 24.8378 182.454 25.4914C182.328 26.0482 182.127 27.3313 182.026 28.3238C181.799 30.2605 181.773 30.3573 180.79 32.4393C180.008 34.1096 179.756 34.9085 179.504 36.4337C179.277 37.7893 178.747 39.7986 178.47 40.5491C178.192 41.2269 177.562 43.1878 177.082 44.9066C176.452 47.1822 175.443 50.4262 175.166 51.0314C175.04 51.3461 174.939 51.7576 174.939 51.9513C174.939 52.6049 172.644 56.9624 171.458 58.5844C168.735 62.2399 167.322 63.0872 164.926 62.4336C164.245 62.2641 163.388 61.9252 162.959 61.6831C162.556 61.441 162.026 61.1747 161.824 61.0779C161.623 60.981 160.286 60.2306 158.874 59.3833C157.436 58.536 156.225 57.8582 156.15 57.8582C155.797 57.8582 153.048 56.0425 152.19 55.2436C150.4 53.5975 150.904 53.5975 154.99 55.2194C156.705 55.8973 158.142 56.3814 158.218 56.3088C158.344 56.1878 156.528 54.8563 151.56 51.4671C149.038 49.7483 148.458 49.2641 148.458 48.78C148.458 48.4411 148.584 48.1748 148.71 48.1748C148.861 48.1748 148.962 48.0779 148.962 47.9569C148.962 47.8359 148.76 47.7632 148.533 47.8116C148.281 47.8601 147.953 47.9085 147.802 47.9085C147.676 47.9327 146.894 48.32 146.087 48.78C145.28 49.2399 144.448 49.6273 144.271 49.6273C143.994 49.6273 143.918 49.0705 143.918 47.037C143.918 45.6329 143.741 43.551 143.515 42.4132C143.061 40.0165 143.237 39.5808 144.422 40.2344C144.851 40.4765 145.229 40.5491 145.305 40.4039C145.507 40.1133 146.617 40.1133 146.818 40.4281C146.894 40.5491 147.121 40.6702 147.323 40.6702C147.827 40.6702 150.324 42.1469 151.333 43.0426C152.543 44.0835 154.536 46.8433 154.561 47.4969C154.611 48.3442 154.914 48.5863 156.881 49.482C158.52 50.2083 160.387 51.4913 162.505 53.3312C162.934 53.7185 163.615 54.6384 164.018 55.3889C164.901 57.0835 165.078 57.2772 165.885 57.4224C166.54 57.5434 166.566 57.495 166.692 56.1394C166.894 54.4448 167.095 54.009 169.012 50.9587C170.677 48.3684 171.61 46.6981 172.291 45.1487C172.518 44.6161 172.795 43.9625 172.921 43.6962C173.274 42.9942 174.687 38.7577 174.687 38.4914C174.687 38.3461 174.964 37.8135 175.317 37.3052C175.67 36.7968 176.023 35.9979 176.124 35.5137C176.25 34.7875 176.149 34.497 175.544 33.8192C173.552 31.5678 173.299 31.0352 172.77 27.9849C172.417 25.903 172.392 25.2009 172.619 24.6199C172.946 23.8211 172.669 23.2401 171.988 23.2401C171.685 23.2401 171.635 23.4821 171.761 24.4989C171.837 25.2009 172.013 27.0408 172.114 28.5659C172.341 31.3499 172.543 32.0277 173.602 33.6981C174.081 34.4244 174.182 34.9569 174.182 36.4095C174.182 37.402 174.081 38.2977 173.93 38.3703C173.804 38.443 173.678 38.7093 173.678 38.9271C173.678 39.145 173.501 39.6534 173.299 40.0407C173.098 40.4039 172.921 40.8638 172.921 41.0575C172.921 41.3722 172.745 41.7837 170.904 45.6329C170.45 46.5528 169.441 48.199 168.634 49.2641C167.852 50.3293 166.843 51.806 166.44 52.5323C165.254 54.5658 165.078 54.59 163.388 52.8712C161.875 51.3219 160.689 50.4746 158.167 49.1431C156.553 48.2716 156.2 47.9569 154.964 46.1171C153.502 43.9867 151.333 41.6385 150.803 41.6385C150.627 41.6385 150.475 41.5659 150.475 41.4448C150.475 41.1785 147.978 39.8955 146.97 39.6776C146.465 39.5566 145.507 39.3387 144.826 39.2176C143.439 38.9513 142.657 38.4188 142.657 37.7409C142.657 37.1841 145.154 35.2717 146.263 34.9327C147.171 34.6907 148.155 34.9085 149.946 35.78C151.257 36.4095 152.493 36.6515 153.199 36.4579C153.476 36.361 153.905 35.78 154.208 35.1022C154.51 34.4244 154.864 33.8918 155.015 33.8918C155.292 33.8918 156.528 31.4951 156.528 30.9383C156.528 30.5026 157.032 30.0184 157.512 30.0184C157.739 30.0184 158.142 29.849 158.394 29.6553C158.899 29.2922 158.899 29.268 158.344 27.7428C158.041 26.8955 157.789 25.9756 157.789 25.7093C157.789 25.2251 158.823 23.1674 159.328 22.6348C159.454 22.5138 159.555 21.5697 159.555 20.5529C159.555 19.1004 159.428 18.3984 158.924 17.3332C158.571 16.5827 158.294 15.8081 158.294 15.6144C158.294 14.985 157.31 13.4356 156.2 12.2978C154.712 10.7485 152.493 9.34439 150.4 8.54551C148.811 7.98872 148.205 7.89189 145.81 7.86768C143.994 7.86768 142.758 7.98872 142.203 8.2066C141.522 8.47289 141.27 8.4971 140.766 8.23081C140.236 7.96452 140.085 7.96451 139.681 8.30343C139.429 8.54552 139.025 8.71497 138.798 8.71497C138.37 8.71497 138.294 8.4971 138.344 7.60139C138.42 6.87514 136.226 3.84908 135.116 3.14703C133.073 1.81557 130.526 1.21035 127.071 1.23456C124.347 1.25877 124.65 1.52505 127.878 1.96081C128.862 2.08185 129.744 2.27553 129.896 2.42078C130.022 2.54182 130.375 2.66286 130.652 2.66286C131.232 2.66286 133.578 3.89748 134.914 4.91424C135.57 5.39841 135.848 5.78575 135.797 6.14888C135.721 6.63305 135.57 6.65726 132.443 6.70567C129.189 6.72988 128.307 6.87514 122.96 8.23081C121.901 8.52131 120.867 8.54552 120.64 8.30343C120.413 8.08556 124.978 6.00363 126.768 5.51946C127.525 5.30158 128.66 4.98687 129.29 4.81741L130.425 4.52691L128.912 4.16378C127.626 3.87328 126.945 3.87328 124.499 4.13957C122.91 4.30903 119.782 4.45428 117.563 4.45428C113.477 4.43007 112.922 4.35745 109.366 3.24387C107.223 2.59024 107.374 2.97756 109.72 4.09116C111.258 4.81741 111.813 5.35 111.485 5.83417C111.132 6.41518 105.76 5.97942 102.809 5.13212C101.473 4.76899 97.8913 3.09861 97.4121 2.63865C97.2608 2.5176 97.0086 2.42078 96.8068 2.42078C96.6051 2.42078 97.0842 3.00178 97.8408 3.67961C99.4297 5.13212 99.7324 5.88258 98.7992 6.00362C98.4713 6.05204 98.093 5.97942 97.9417 5.83417C97.7904 5.68892 97.4625 5.56788 97.2103 5.56788C95.7476 5.56788 89.1651 2.08186 87.778 0.580933C87.4754 0.26622 87.0718 -7.62939e-05 86.8953 -7.62939e-05C86.6935 -7.62939e-05 86.6431 0.0725479 86.7944 0.193588ZM148.357 8.73919C148.432 8.86023 148.659 8.95706 148.886 8.95706C149.542 8.95706 151.055 9.9496 150.778 10.2159C150.526 10.458 149.391 10.2159 147.827 9.56227C147.424 9.39281 146.869 9.17493 146.642 9.10231C146.39 9.02969 146.188 8.86023 146.188 8.73919C146.188 8.27923 148.054 8.27923 148.357 8.73919ZM148.71 12.6367C148.71 12.9757 147.525 12.8304 147.197 12.4673C147.02 12.2736 146.717 12.1042 146.541 12.1042C146.339 12.1042 146.188 12.0073 146.188 11.8863C146.188 11.7652 145.936 11.5716 145.658 11.499C145.229 11.3537 145.204 11.2811 145.456 11.1116C145.81 10.9179 148.71 12.2736 148.71 12.6367ZM143.615 20.0203C143.363 20.0687 142.96 20.0687 142.733 20.0203C142.48 19.9477 142.682 19.8993 143.161 19.8993C143.641 19.8993 143.842 19.9477 143.615 20.0203ZM144.675 20.5771C144.675 20.6982 144.574 20.8192 144.422 20.8192C144.296 20.8192 144.17 20.6982 144.17 20.5771C144.17 20.4319 144.296 20.335 144.422 20.335C144.574 20.335 144.675 20.4319 144.675 20.5771ZM143.086 21.7149C143.161 21.8844 143.035 22.2475 142.808 22.4896C142.228 23.0948 142.304 23.3853 143.136 23.9421C144.044 24.5715 144.675 24.5957 144.523 24.0147C144.347 23.4095 144.776 21.7149 145.103 21.6181C145.28 21.5455 145.456 22.0296 145.557 22.8769C145.709 23.9663 145.633 24.4505 145.229 25.3704C144.952 25.9998 144.523 26.5566 144.296 26.5808C143.792 26.6777 142.279 25.3704 141.749 24.4021C141.32 23.6274 141.27 21.7633 141.673 21.376C142.001 21.0613 142.909 21.255 143.086 21.7149ZM140.992 25.8062C141.27 26.5082 141.144 29.3406 140.791 30.091C140.589 30.5268 140.236 31.3983 139.984 32.0761C139.757 32.7298 139.479 33.3834 139.378 33.5286C139.101 33.9402 138.546 36.4579 138.672 36.7968C138.723 36.9905 138.975 36.7 139.227 36.1674C139.479 35.659 139.908 34.7875 140.16 34.2791C140.438 33.7465 140.639 33.2139 140.639 33.0687C140.639 32.6814 141.673 30.7447 141.9 30.7447C142.001 30.7447 142.405 31.6646 142.783 32.8024C143.59 35.199 143.54 35.4653 141.825 36.7242C141.245 37.1357 140.11 38.104 139.328 38.8545C138.092 40.0165 137.865 40.3796 137.865 41.0817V41.929L138.521 41.1785C139.328 40.2586 139.631 40.2344 139.631 41.1059C139.631 41.9774 139.858 42.1953 140.312 41.8322C140.589 41.6143 140.74 41.6143 140.917 41.9048C141.27 42.3889 141.068 47.618 140.69 47.9811C140.513 48.1506 140.387 48.5137 140.387 48.8284C140.387 49.6273 139.101 51.5155 138.47 51.6608C137.638 51.8787 136.781 51.4913 135.747 50.4262C133.578 48.2232 132.846 45.1487 132.846 37.8135C132.821 35.5137 132.695 33.1413 132.544 32.5603C132.165 31.1078 132.392 30.3089 133.275 30.091C133.653 30.0184 134.309 29.7279 134.713 29.4858C136.503 28.4449 137.109 28.4207 137.109 29.3406C137.109 30.0668 137.663 29.5343 138.798 27.7428C140.236 25.443 140.69 25.0315 140.992 25.8062ZM145.557 30.0184C145.658 30.4058 145.835 30.7931 145.961 30.8657C146.339 31.1078 146.238 32.1972 145.81 32.1972C145.608 32.1972 145.431 32.0519 145.431 31.8583C145.431 31.6888 145.255 31.3983 145.053 31.2288C144.675 30.9141 144.549 30.091 144.826 29.4374C145.028 28.9048 145.356 29.1711 145.557 30.0184ZM115.848 42.2921C116.731 43.9625 116.857 44.3014 116.529 44.5677C116.252 44.7856 115.999 44.7856 115.419 44.5435C114.183 44.0593 113.654 43.212 113.654 41.7595C113.654 39.4597 114.436 39.6534 115.848 42.2921ZM120.186 51.6124C120.64 52.6533 121.22 54.2753 121.22 54.5658C121.22 54.7111 121.018 54.59 120.766 54.3237C120.262 53.8153 119.454 51.9029 119.454 51.2492C119.454 50.5956 119.808 50.7651 120.186 51.6124ZM111.687 68.0499C112.922 68.6551 112.67 69.1151 111.208 68.9214C108.635 68.5583 106.718 68.2194 106.592 68.1225C106.29 67.8078 107.374 67.5415 108.938 67.5415C110.173 67.5415 110.93 67.6868 111.687 68.0499ZM148.205 68.7035C150.551 68.9698 152.947 69.4298 154.813 69.9624C155.872 70.2529 157.537 71.6328 157.537 72.2138C157.537 72.5527 157.411 72.5527 156.73 72.3348C156.276 72.1896 155.797 71.9959 155.645 71.8991C155.015 71.4875 150.727 70.8823 145.81 70.5434C143.918 70.3981 128.307 71.0276 126.642 71.3181C126.239 71.3665 124.196 71.5359 122.103 71.657C120.035 71.8022 117.588 71.9959 116.68 72.1169C113.957 72.4801 110.375 72.6737 110.375 72.4559C110.4 72.0927 112.292 71.3665 115.419 70.5434C118.244 69.7929 125.028 68.7762 127.399 68.7278C128.382 68.7278 129.669 68.6309 130.299 68.5099C131.863 68.2436 145.255 68.3888 148.205 68.7035ZM150.299 76.184C150.122 76.2324 149.82 76.2324 149.668 76.184C149.492 76.1113 149.618 76.0629 149.971 76.0629C150.324 76.0629 150.45 76.1113 150.299 76.184ZM88.2824 78.7259C88.5346 79.67 89.039 81.0741 89.3669 81.7519C89.7452 82.5024 89.6695 83.277 89.266 83.277C89.1651 83.277 88.6859 82.7687 88.2572 82.115C87.6267 81.2435 87.4249 80.7109 87.4249 79.8636C87.4249 79.2584 87.5006 78.6774 87.6015 78.6048C87.8537 78.3385 88.1815 78.4111 88.2824 78.7259Z" fill="white"/>
<path d="M179.198 17.114C179.173 17.235 179.173 18.276 179.223 19.4864C179.299 22.6335 179.728 22.6819 179.728 19.5348C179.728 17.9613 179.627 16.9445 179.476 16.9445C179.35 16.9445 179.198 17.0172 179.198 17.114Z" fill="white"/>
<path d="M82.0019 20.8661C81.447 20.9872 80.1356 21.2777 79.1016 21.4956C78.0675 21.6892 77.1092 21.9555 76.9578 22.0766C76.8317 22.1734 76.4787 22.2702 76.176 22.2702C75.8482 22.2702 75.5203 22.3913 75.4194 22.5365C75.3185 22.7302 75.5203 22.7544 76.1004 22.6576C78.3197 22.2218 79.5303 21.9797 80.2365 21.7861C81.22 21.4956 84.7004 21.0356 87.2981 20.8177C89.1896 20.6725 89.1139 20.6483 86.1632 20.6483C84.423 20.6483 82.5567 20.7451 82.0019 20.8661Z" fill="white"/>
<path d="M73.6292 23.1668C73.8561 23.2152 74.2092 23.2152 74.3858 23.1668C74.5371 23.0942 74.3605 23.0458 73.9318 23.0458C73.5283 23.0458 73.377 23.0942 73.6292 23.1668Z" fill="white"/>
<path d="M173.729 25.6588C173.729 25.9978 173.779 26.1188 173.855 25.9493C173.905 25.8041 173.905 25.5136 173.855 25.3441C173.779 25.1989 173.729 25.3199 173.729 25.6588Z" fill="white"/>
<path d="M176.252 25.903C176.252 26.2419 176.302 26.3629 176.378 26.1935C176.428 26.0482 176.428 25.7577 176.378 25.5883C176.302 25.443 176.252 25.5641 176.252 25.903Z" fill="white"/>
<path d="M174.206 27.0171C174.18 27.7918 174.962 28.7359 175.391 28.4697C175.694 28.3002 175.921 26.8719 175.668 26.8719C175.568 26.8719 175.391 26.9687 175.315 27.114C175.063 27.5013 174.786 27.4045 174.483 26.7993C174.231 26.2909 174.206 26.2909 174.206 27.0171Z" fill="white"/>
<path d="M61.5237 30.6707C61.7507 30.7191 62.1038 30.7191 62.2803 30.6707C62.4316 30.5981 62.2551 30.5497 61.8263 30.5497C61.4228 30.5497 61.2715 30.5981 61.5237 30.6707Z" fill="white"/>
<path d="M56.6046 31.8817C56.7559 31.9301 57.0586 31.9301 57.2351 31.8817C57.3864 31.809 57.2603 31.7606 56.9073 31.7606C56.5542 31.7606 56.4281 31.809 56.6046 31.8817Z" fill="white"/>
<path d="M55.1385 32.4376C54.8106 32.6313 54.8358 32.6797 55.2141 32.6797C55.4411 32.6797 55.6429 32.5586 55.6429 32.4376C55.6429 32.1471 55.6177 32.1471 55.1385 32.4376Z" fill="white"/>
<path d="M50.6016 35.1269C50.6016 35.2479 50.7277 35.2963 50.8538 35.2237C51.0051 35.1511 51.106 35.03 51.106 34.9574C51.106 34.909 51.0051 34.8606 50.8538 34.8606C50.7277 34.8606 50.6016 34.9816 50.6016 35.1269Z" fill="white"/>
<path d="M49.5934 35.7539C48.4332 36.5286 48.2567 36.6738 46.7183 38.199C45.205 39.6999 44.0449 41.2008 44.0449 41.685C44.0449 42.1933 47.0461 41.6608 50.35 40.5714C53.225 39.603 53.9312 39.4578 54.94 39.5788C55.9236 39.6999 56.2262 39.6272 56.655 39.2157C57.1594 38.7315 57.3359 38.0053 56.9828 38.0053C56.8567 38.0053 56.3776 38.1021 55.8984 38.2232C54.1078 38.6589 51.3588 39.0462 51.2074 38.901C51.1066 38.8042 51.1822 38.5863 51.3588 38.3684C51.8379 37.8358 51.5101 37.6664 50.5769 37.9811C50.123 38.1263 49.5429 38.2474 49.2403 38.2474C48.7359 38.2474 48.7611 38.199 49.3916 37.6906C49.7699 37.4001 50.4256 36.8917 50.8291 36.577C51.2579 36.2623 51.611 35.8265 51.5857 35.6086C51.5857 35.3666 51.5353 35.3424 51.4344 35.5118C51.2831 35.8749 50.4256 35.9234 50.2995 35.5844C50.2491 35.4392 49.9464 35.5118 49.5934 35.7539ZM48.5845 39.942C48.5845 40.063 48.408 40.184 48.181 40.184C47.9793 40.184 47.8784 40.063 47.954 39.942C48.0297 39.7967 48.2062 39.6999 48.3576 39.6999C48.4837 39.6999 48.5845 39.7967 48.5845 39.942ZM47.4496 40.4261C47.5253 40.5714 47.4244 40.7408 47.1974 40.8135C46.7183 41.0071 46.4408 40.8135 46.693 40.4503C46.8948 40.1114 47.2479 40.1114 47.4496 40.4261ZM46.1886 41.1524C46.2643 41.2734 46.1634 41.3945 45.9617 41.3945C45.7347 41.3945 45.5581 41.2734 45.5581 41.1524C45.5581 41.0071 45.659 40.9103 45.7851 40.9103C45.9364 40.9103 46.113 41.0071 46.1886 41.1524Z" fill="white"/>
<path d="M181.345 49.3108C181.27 49.5528 181.093 49.9886 180.967 50.3033C180.841 50.618 180.74 51.078 180.74 51.3443C180.74 51.8042 180.16 53.7893 179.731 54.8303C179.63 55.0966 179.05 56.5733 178.47 58.0984C177.285 61.1245 176.73 62.3107 175.444 64.5137C174.99 65.3126 174.485 66.1841 174.334 66.4503C174.183 66.7166 173.981 66.9829 173.905 67.0556C173.83 67.1282 173.552 67.5639 173.275 68.0239C173.023 68.4839 172.644 69.0164 172.493 69.1859C172.165 69.5248 172.064 69.9606 172.317 69.9606C172.392 69.9606 172.796 69.6459 173.25 69.2343C174.637 67.9997 175.116 68.4354 174.233 70.1542C173.124 72.333 170.299 76.8842 168.912 78.6756C167.979 79.9103 165.633 82.549 164.675 83.4447C164.221 83.8562 163.843 84.292 163.843 84.3888C163.843 84.4857 163.641 84.7035 163.414 84.873C163.162 85.0424 163.01 85.2361 163.086 85.3087C163.439 85.6235 167.853 81.6048 169.996 79.0388C170.778 78.0946 171.484 77.2231 171.61 77.1021C172.14 76.4727 173.855 74.1244 174.158 73.5918C175.217 71.8246 177.411 67.3703 178.218 65.4094C179.706 61.7055 180.513 58.6794 180.992 55.0724C181.118 54.1282 181.27 53.1599 181.345 52.8936C181.572 51.9737 181.799 48.8992 181.648 48.8992C181.547 48.8992 181.421 49.0929 181.345 49.3108Z" fill="white"/>
<path d="M85.2307 54.3953C85.4577 54.4437 85.8108 54.4437 85.9873 54.3953C86.1386 54.3227 85.9621 54.2743 85.5334 54.2743C85.1298 54.2743 84.9785 54.3227 85.2307 54.3953Z" fill="white"/>
<path d="M81.8743 55.0956C81.3951 55.2651 80.7899 55.4103 80.5377 55.4103C80.2855 55.4345 79.3775 55.6766 78.52 55.9429C77.6626 56.2334 76.6285 56.5481 76.1998 56.645C74.7118 57.0323 71.2819 58.2669 69.0625 59.2111C68.3311 59.5258 67.6502 59.7921 67.5493 59.7921C67.4232 59.7921 66.8431 60.0099 66.2126 60.3004C62.6818 61.8982 61.7487 62.3582 60.9416 62.8181C60.1598 63.2781 58.2178 64.3432 56.402 65.2874C56.0489 65.481 55.4184 65.8442 54.9644 66.0863C53.8295 66.7399 48.1046 70.7585 47.3227 71.4605C46.9697 71.7752 46.3644 72.2594 45.9861 72.5499C44.9016 73.373 45.633 73.4214 46.7931 72.6225C47.348 72.211 47.928 71.8963 48.0541 71.8963C48.1802 71.8963 48.3315 71.7995 48.382 71.7026C48.4576 71.5332 50.7779 69.9596 50.9797 69.9596C51.0301 69.9596 51.9885 69.4028 53.0981 68.7492C54.2078 68.0714 55.1914 67.5388 55.2671 67.5388C55.3175 67.5388 56.1246 67.103 57.0325 66.5704C57.9404 66.0378 58.7727 65.6021 58.8988 65.6021C59.0249 65.6021 59.1762 65.5053 59.2266 65.3842C59.3023 65.1905 70.1217 60.0341 70.4748 60.0341C70.5757 60.0341 71.2062 59.7678 71.9124 59.4531C73.0473 58.9448 74.3083 58.4364 77.713 57.2017C78.2678 56.9839 79.0749 56.6934 79.4784 56.5239C79.9072 56.3545 80.689 56.0882 81.2438 55.9187C81.7987 55.7735 82.6057 55.4829 83.0092 55.3135C83.438 55.144 83.9928 54.9504 84.2702 54.8777C84.5477 54.8051 84.3207 54.7567 83.7658 54.7567C83.211 54.7567 82.3535 54.9019 81.8743 55.0956Z" fill="white"/>
<path d="M101.04 58.2682C97.8372 58.7281 96.1979 59.0186 94.2307 59.4302C93.3228 59.648 92.3897 59.7933 92.1375 59.7933C91.8853 59.7933 91.0782 59.9628 90.372 60.1806C89.6407 60.3743 88.6066 60.6648 88.0518 60.7858C86.589 61.149 83.1339 62.1899 82.1251 62.5773C81.6459 62.7467 80.3849 63.2067 79.3508 63.5456C78.3168 63.9087 76.8541 64.4655 76.1227 64.7802C75.3913 65.0949 74.6851 65.3612 74.5842 65.3612C74.2312 65.3612 70.3473 67.1769 67.8757 68.5083C67.0434 68.9441 65.959 69.5251 65.4798 69.7914C62.7056 71.2439 57.2076 74.8025 54.7612 76.6908C50.5495 79.9589 44.4462 85.9142 44.8749 86.35C44.9758 86.4226 45.1019 86.3016 45.2028 86.0837C45.2785 85.8658 45.4802 85.6964 45.6568 85.6964C45.8081 85.6964 46.4638 85.2122 47.0943 84.6554C48.9858 83.0092 49.8937 82.2345 51.1043 81.3388C51.7348 80.8789 52.5166 80.2494 52.8445 79.9589C53.1724 79.6684 53.8281 79.2327 54.3073 78.9906C54.7612 78.7727 55.1395 78.4822 55.1395 78.3854C55.1395 78.2644 55.2656 78.1917 55.3917 78.1917C55.543 78.1917 56.2492 77.7802 56.9806 77.2476C58.2164 76.3761 63.8909 72.9385 64.7232 72.5512C64.9249 72.4543 65.6815 72.0428 66.3625 71.6554C67.5983 70.9292 75.6183 67.1042 77.8376 66.1601C78.4681 65.8938 79.6283 65.3855 80.4353 65.0223C81.2424 64.6834 82.0242 64.3929 82.2007 64.3929C82.3773 64.3929 82.6295 64.2961 82.7556 64.175C82.9825 64.0056 83.5122 63.8119 86.9169 62.7467C87.5474 62.5531 88.2788 62.311 88.5562 62.2141C88.8336 62.1173 89.9181 61.7784 90.9521 61.4879C95.7187 60.1564 94.9117 60.3501 100.284 59.3091C101.746 59.0428 103.739 58.6555 104.697 58.4618C105.681 58.2682 106.916 58.0745 107.471 58.0261C108.026 57.9777 107.345 57.9292 105.958 57.9292C104.571 57.905 102.352 58.0745 101.04 58.2682Z" fill="white"/>
<path d="M72.9223 73.0836C72.8466 73.2046 72.4683 73.3741 72.0396 73.4709C71.636 73.5435 70.7281 73.8824 70.0219 74.2214C69.341 74.5361 68.6853 74.8024 68.6096 74.8024C68.5087 74.8024 66.8946 75.5286 65.0031 76.4243C62.0019 77.8526 60.4131 78.6757 58.5468 79.8377C58.2694 79.983 57.8658 80.2009 57.6641 80.2977C56.4283 80.8303 49.8963 85.0668 49.3414 85.672C49.2658 85.7446 48.5848 86.2772 47.8282 86.8098C47.0716 87.3666 46.0376 88.1654 45.5584 88.6012C45.0792 89.0369 43.9191 90.0295 43.0112 90.8284C42.078 91.603 40.3631 93.2976 39.2282 94.5807C36.8827 97.1468 37.0592 96.9289 34.9407 99.616C34.1085 100.681 33.3014 101.722 33.1249 101.916C32.9484 102.11 32.4187 102.884 31.9395 103.61C31.4604 104.337 30.9812 104.966 30.8803 105.015C30.7542 105.063 30.6785 105.208 30.6785 105.329C30.6785 105.45 30.4011 105.959 30.0985 106.467C28.2574 109.251 27.2738 111.478 28.6357 109.735C28.9131 109.372 29.2662 108.936 29.3671 108.815C29.4932 108.67 29.7958 108.234 30.0733 107.847C30.3255 107.435 30.6029 107.072 30.6785 107C30.7794 106.927 31.3343 106.225 31.9395 105.426C33.6797 103.126 35.7478 100.754 37.7402 98.7445C38.3707 98.1393 39.5056 96.9773 40.2874 96.2027C42.4059 94.0723 45.9115 90.9736 48.2822 89.1338C48.8623 88.6738 49.5684 88.0928 49.8963 87.8265C50.2241 87.5602 50.8799 87.0519 51.359 86.6887C51.8382 86.3498 52.2922 85.9867 52.3679 85.9141C52.4435 85.8414 53.4523 85.1394 54.6377 84.3647C55.823 83.59 57.6893 82.3312 58.799 81.5807C59.9087 80.8303 61.2201 80.0072 61.6993 79.7409C62.1785 79.4988 62.6324 79.2083 62.7081 79.1357C62.7838 79.0631 63.5152 78.6273 64.3474 78.1916C65.1797 77.7558 65.9867 77.32 66.1128 77.2232C66.4407 76.9811 69.0384 75.6255 70.6524 74.8266C71.3586 74.4877 71.9639 74.1245 71.9891 74.0035C72.0396 73.9067 72.2161 73.834 72.4179 73.834C72.5944 73.834 72.8718 73.6888 73.0484 73.4951C73.1997 73.3014 73.6536 73.0836 74.0067 73.0351C74.6372 72.9383 74.612 72.9383 73.8806 72.8899C73.4519 72.8899 73.0231 72.9625 72.9223 73.0836Z" fill="white"/>
<path d="M44.9262 73.5939C44.8505 73.7149 44.901 73.8359 45.0271 73.8359C45.1784 73.8359 45.3045 73.7149 45.3045 73.5939C45.3045 73.4486 45.254 73.3518 45.2036 73.3518C45.1279 73.3518 45.0018 73.4486 44.9262 73.5939Z" fill="white"/>
<path d="M126.77 100.004C126.77 100.125 126.896 100.173 127.022 100.101C127.173 100.028 127.274 99.907 127.274 99.8343C127.274 99.7859 127.173 99.7375 127.022 99.7375C126.896 99.7375 126.77 99.8586 126.77 100.004Z" fill="white"/>
</svg>
