<svg width="20" height="20" viewBox="0 0 20 20" fill="none" xmlns="http://www.w3.org/2000/svg">
<path d="M10.0001 3.49902C9.00014 3.49902 8.03014 3.64702 7.11114 3.92402L8.34814 5.16002C10.4877 4.73638 12.7082 5.15111 14.5506 6.31845C16.393 7.4858 17.7164 9.31649 18.2471 11.432C18.299 11.621 18.4226 11.7821 18.5917 11.881C18.7608 11.98 18.9619 12.0088 19.152 11.9614C19.3421 11.9139 19.506 11.794 19.6089 11.6273C19.7117 11.4605 19.7452 11.2601 19.7021 11.069C19.1603 8.90623 17.9113 6.98653 16.1534 5.61496C14.3956 4.2434 12.2298 3.49864 10.0001 3.49902Z" fill="#797979"/>
<path d="M4.25414 5.31402C2.28808 6.69355 0.884191 8.7346 0.299143 11.064C0.254123 11.2558 0.286382 11.4576 0.388949 11.6259C0.491516 11.7941 0.656153 11.9152 0.84728 11.963C1.03841 12.0108 1.24067 11.9815 1.41036 11.8814C1.58006 11.7813 1.70355 11.6184 1.75414 11.428C2.27395 9.36044 3.55174 7.56369 5.33414 6.39402C6.33419 5.76385 6.96437 5.47156 8.34814 5.16002L7.11114 3.92402C5.94465 4.32135 5.36042 4.62686 4.25414 5.31402Z" fill="#797979"/>
<circle cx="10" cy="11" r="4" fill="#797979"/>
</svg>
