<svg width="13" height="13" viewBox="0 0 13 13" fill="none" xmlns="http://www.w3.org/2000/svg">
<path d="M11.05 0H1.95C1.0309 0 0.57135 -4.17237e-08 0.286 0.288403C0.00065003 0.576806 0 1.04161 0 1.97052V2.45353C0 3.17943 0 3.54274 0.169 3.84374C0.338 4.14475 0.64545 4.33235 1.2623 4.70615L3.15575 5.85416C3.56915 6.10477 3.7765 6.23007 3.9247 6.36867C4.2328 6.65637 4.4226 6.99518 4.5084 7.41168C4.55 7.61048 4.55 7.84429 4.55 8.31119V10.1802C4.55 10.8165 4.55 11.135 4.7138 11.3828C4.8776 11.6313 5.1688 11.7538 5.7499 11.9988C6.97125 12.5126 7.5816 12.7695 8.0158 12.4769C8.45 12.1843 8.45 11.5165 8.45 10.1795V8.31049C8.45 7.84429 8.45 7.61048 8.4916 7.41098C8.57323 7.00299 8.77886 6.63596 9.07595 6.36797C9.2235 6.23007 9.43085 6.10477 9.84425 5.85346L11.7377 4.70545C12.3539 4.33235 12.6626 4.14544 12.831 3.84444C13 3.54344 13 3.17943 13 2.45283V1.96982C13 1.04161 13 0.576806 12.714 0.288403C12.4293 -4.17237e-08 11.9697 0 11.05 0Z" fill="#B8B6B6"/>
</svg>
