<svg width="137" height="123" viewBox="0 0 137 123" fill="none" xmlns="http://www.w3.org/2000/svg">
<path d="M57.8093 0.494532C45.6958 1.66557 32.2362 5.48687 20.4897 11.2188C12.9035 14.8552 0.973414 22.5594 0.422797 24.1619C-0.923156 27.5518 1.09577 30.88 4.3383 30.88C5.86779 30.88 7.88672 29.8938 11.9246 27.0587C24.5276 18.43 40.9849 12.0817 55.4845 10.2943C62.2755 9.43143 74.7561 9.43143 81.5471 10.2943C96.3525 12.1433 110.791 17.6904 125.474 27.182C130.43 30.3869 132.143 31.2498 133.366 30.9416C136.242 30.2636 137.771 27.1203 136.609 24.1003C136.058 22.5594 124.25 14.9785 116.542 11.2188C98.0044 2.22028 78.1822 -1.41611 57.8093 0.494532Z" fill="#36898A"/>
<path d="M59.3095 33.173C58.8196 33.2946 56.3089 33.7201 53.7982 34.0849C44.1841 35.6048 32.7329 40.1037 23.976 45.8184C18.8934 49.1622 17.8524 51.4116 20.1794 54.3906C22.2002 56.944 24.5884 56.5184 30.7733 52.6883C54.0431 38.219 84.3552 38.523 107.748 53.5394C112.402 56.5184 114.973 56.7616 116.811 54.3906C118.709 52.0196 118.403 50.5605 115.402 47.7639C110.136 42.9002 96.725 36.9423 85.0288 34.3281C81.4158 33.477 61.6365 32.6258 59.3095 33.173Z" fill="#36898A"/>
<path d="M60.0944 63.6347C54.016 65.0088 46.0719 68.5066 43.4239 71.0675C41.4379 72.8789 41.5583 76.0019 43.6045 77.6883C45.8312 79.4997 46.7339 79.3748 52.6318 76.4391C63.4044 71.0675 73.4548 71.0675 84.4681 76.4391C87.3569 77.8132 90.2456 79 90.9076 79C92.6529 79 95 76.1893 95 74.1281C95 73.0662 94.4584 71.817 93.6158 71.005C91.8705 69.2561 84.0469 65.571 79.5332 64.2593C74.6584 62.8852 64.9089 62.5729 60.0944 63.6347Z" fill="#36898A"/>
<path d="M99.7116 86.8673C98.6797 87.3606 97.6479 88.1621 97.4051 88.7787C96.3732 91.5534 97.0409 92.8483 102.625 98.706L108.149 104.502L102.929 109.928C100.076 112.888 97.5265 116.094 97.3444 116.957C96.7981 119.177 97.4658 120.965 99.1653 122.137C101.654 123.802 103.657 122.753 109.484 116.834L114.886 111.346L120.774 117.142C124.294 120.595 127.208 123 127.936 123C131.457 123 133.824 119.917 132.731 116.834C132.428 115.971 129.818 112.888 126.904 109.866L121.624 104.502L127.269 98.7676C132.246 93.7115 132.853 92.8483 132.853 90.8752C132.853 87.5455 130 85.5108 126.904 86.6823C125.994 86.9906 122.959 89.642 120.106 92.54L114.947 97.7194L110.091 92.725C106.085 88.5938 102.686 85.8807 101.775 86.004C101.654 86.0657 100.743 86.4357 99.7116 86.8673Z" fill="#36898A"/>
<path d="M65.8515 96.7539C64.0792 98.1365 63.4681 100.721 64.507 102.645C65.546 104.568 67.6238 105.41 70.0683 104.809C72.0851 104.268 73.6129 100.962 72.7573 98.7977C71.7795 96.2731 68.0516 95.131 65.8515 96.7539Z" fill="#36898A"/>
</svg>
