<svg width="24" height="25" viewBox="0 0 24 25" fill="none" xmlns="http://www.w3.org/2000/svg">
<path d="M12 0.650391C14.9547 0.650391 17.3496 3.04527 17.3496 6C17.3496 8.95473 14.9547 11.3496 12 11.3496C9.04527 11.3496 6.65039 8.95473 6.65039 6C6.65039 3.04527 9.04527 0.650391 12 0.650391Z" fill="#4C5050" stroke="#4C5050" stroke-width="1.3"/>
<path d="M4.25 14.6504H19.75C20.7657 14.6504 21.7396 15.1535 22.2021 16.0801C22.6421 16.9606 23.1534 18.2052 23.3135 19.4854L23.3398 19.7412C23.4167 20.6325 23.0436 21.5143 22.2598 21.999C20.7486 22.9306 17.5363 24.3496 12 24.3496C6.46366 24.3496 3.25141 22.9306 1.74023 21.999C1.00544 21.5446 0.631001 20.7412 0.650391 19.9082L0.660156 19.7412C0.779031 18.3724 1.32864 17.0192 1.79785 16.0801C2.26038 15.1535 3.23433 14.6504 4.25 14.6504Z" fill="#4C5050" stroke="#4C5050" stroke-width="1.3"/>
</svg>
