<svg width="20" height="20" viewBox="0 0 20 20" fill="none" xmlns="http://www.w3.org/2000/svg">
<path d="M12.5002 11.802L16.2547 18.1179C16.439 18.428 16.3398 18.827 16.0331 19.0081C15.7278 19.1885 15.3321 19.0845 15.1485 18.7756L11.3928 12.4561C10.1956 12.9942 8.84942 13.1006 7.57719 12.7578C4.48086 11.9281 2.61253 8.71621 3.4068 5.58833C4.20108 2.46045 7.35867 0.595221 10.455 1.42488C13.5513 2.25454 15.4197 5.46646 14.6254 8.59434C14.3007 9.88048 13.5509 11.0122 12.5002 11.802ZM11.3685 10.9998C12.368 10.3899 13.0894 9.40688 13.3789 8.26034C13.9971 5.82565 12.5454 3.32988 10.1352 2.68409C7.72511 2.0383 5.27156 3.48764 4.65331 5.92233C4.03506 8.35702 5.48682 10.8528 7.89695 11.4986C9.03109 11.8042 10.2347 11.6501 11.2511 11.0692L11.3685 10.9998Z" fill="#4C5050"/>
</svg>
