<svg width="24" height="24" viewBox="0 0 24 24" fill="none" xmlns="http://www.w3.org/2000/svg">
<path d="M1.40039 20.7607H22.5996C23.0137 20.7607 23.3494 21.0967 23.3496 21.5107V22.5996C23.3496 23.0138 23.0138 23.3496 22.5996 23.3496H1.40039C0.986177 23.3496 0.650391 23.0138 0.650391 22.5996V21.5107C0.650591 21.0967 0.986301 20.7607 1.40039 20.7607ZM3.5332 10.1533H4.4668C5.32278 10.1534 6.0166 10.8471 6.0166 11.7031V15.917C6.0166 16.773 5.32278 17.4667 4.4668 17.4668H3.5332C2.67722 17.4667 1.9834 16.773 1.9834 15.917V11.7031C1.9834 10.8471 2.67722 10.1534 3.5332 10.1533ZM11.5332 0.650391H12.4668C13.3228 0.650461 14.0166 1.3442 14.0166 2.2002V15.917C14.0166 16.773 13.3228 17.4667 12.4668 17.4668H11.5332C10.6772 17.4667 9.9834 16.773 9.9834 15.917V2.2002C9.9834 1.3442 10.6772 0.650462 11.5332 0.650391ZM19.5332 4.72266H20.4668C21.3227 4.72273 22.0165 5.41659 22.0166 6.27246V15.917C22.0166 16.773 21.3228 17.4667 20.4668 17.4668H19.5332C18.6772 17.4667 17.9834 16.773 17.9834 15.917V6.27246C17.9835 5.41659 18.6773 4.72273 19.5332 4.72266Z" fill="#727272" stroke="#727272" stroke-width="1.3"/>
</svg>
