<svg width="24" height="27" viewBox="0 0 24 27" fill="none" xmlns="http://www.w3.org/2000/svg">
<path d="M15.5557 19.0938L15.4287 18.9512L13.3037 16.5801L12.6621 15.8633L12.4443 16.7998L11.5059 20.8389C11.3257 21.6136 10.5718 22.1136 9.78809 21.9775L3.63574 20.9092C3.05453 20.8082 2.66695 20.2535 2.77148 19.6729C2.87301 19.1094 3.402 18.7274 3.96875 18.8086L8.60938 19.4746C8.96365 19.5254 9.29966 19.301 9.3877 18.9541L11.4844 10.6836L11.7461 9.65234L10.7852 10.1084L9.55664 10.6924C9.34751 10.7918 9.21391 11.0028 9.21387 11.2344V12.8027C9.21362 13.4867 8.65959 14.0408 7.97559 14.041C7.29138 14.041 6.73657 13.4869 6.73633 12.8027V10.2783C6.73633 9.68161 7.08975 9.14173 7.63672 8.90332L11.7451 7.11426C12.3117 6.8676 12.9231 6.74029 13.541 6.74023H14C14.4035 6.74023 14.8918 6.84212 15.3418 7.02832C15.7897 7.21367 16.1479 7.46192 16.3506 7.71875H16.3516L17.7188 9.61621V9.61523C18.6789 11.0617 20.3711 12.1458 22.3994 12.5234C23.0433 12.6433 23.5 13.1434 23.5 13.6865C23.5 14.269 23.0391 14.6725 22.5537 14.6074C20.2569 14.2996 18.2288 13.2785 16.8379 11.8857L16.2852 11.3311L16.0146 12.0664L15.1953 14.2998L15.0889 14.5908L15.3018 14.8164L17.3506 16.9824C17.7896 17.4466 18.0342 18.0613 18.0342 18.7002V24.6611C18.0342 25.3455 17.4793 25.9004 16.7949 25.9004C16.1106 25.9003 15.5557 25.3454 15.5557 24.6611V19.0938Z" fill="#4C5050" stroke="#4C5050"/>
<path d="M16 0.5C17.3932 0.5 18.4999 1.59112 18.5 2.87988C18.5 4.1687 17.3933 5.25977 16 5.25977C14.6067 5.25977 13.5 4.1687 13.5 2.87988C13.5001 1.59112 14.6068 0.5 16 0.5Z" fill="#4C5050" stroke="#4C5050"/>
</svg>
